<mxfile host="app.diagrams.net" version="24.8.3">
  <diagram name="Page-1" id="tree-levelorder">
    <mxGraphModel dx="1434" dy="783" grid="1" gridSize="10" guides="1" tooltips="1" connect="1" arrows="1" fold="1" page="1" pageScale="1" pageWidth="827" pageHeight="1169" math="0" shadow="0">
      <root>
        <mxCell id="0" />
        <mxCell id="1" parent="0" />
        <!-- 当前访问的节点 -->
        <mxCell id="node1" value="1" style="ellipse;whiteSpace=wrap;html=1;aspect=fixed;fillColor=#FFB366;strokeWidth=2;" vertex="1" parent="1">
          <mxGeometry x="360" y="80" width="40" height="40" as="geometry" />
        </mxCell>
        <!-- 其他节点 -->
        <mxCell id="node2" value="2" style="ellipse;whiteSpace=wrap;html=1;aspect=fixed;fillColor=#B3D1FF;" vertex="1" parent="1">
          <mxGeometry x="280" y="160" width="40" height="40" as="geometry" />
        </mxCell>
        <mxCell id="node3" value="3" style="ellipse;whiteSpace=wrap;html=1;aspect=fixed;fillColor=#B3D1FF;" vertex="1" parent="1">
          <mxGeometry x="440" y="160" width="40" height="40" as="geometry" />
        </mxCell>
        <mxCell id="node4" value="4" style="ellipse;whiteSpace=wrap;html=1;aspect=fixed;fillColor=#B3D1FF;" vertex="1" parent="1">
          <mxGeometry x="240" y="240" width="40" height="40" as="geometry" />
        </mxCell>
        <mxCell id="node5" value="5" style="ellipse;whiteSpace=wrap;html=1;aspect=fixed;fillColor=#B3D1FF;" vertex="1" parent="1">
          <mxGeometry x="320" y="240" width="40" height="40" as="geometry" />
        </mxCell>
        <mxCell id="node6" value="6" style="ellipse;whiteSpace=wrap;html=1;aspect=fixed;fillColor=#B3D1FF;" vertex="1" parent="1">
          <mxGeometry x="400" y="240" width="40" height="40" as="geometry" />
        </mxCell>
        <mxCell id="node7" value="7" style="ellipse;whiteSpace=wrap;html=1;aspect=fixed;fillColor=#B3D1FF;" vertex="1" parent="1">
          <mxGeometry x="480" y="240" width="40" height="40" as="geometry" />
        </mxCell>
        
        <!-- 连接线 -->
        <mxCell id="edge1" value="" style="endArrow=none;html=1;rounded=0;" edge="1" parent="1" source="node1" target="node2">
          <mxGeometry width="50" height="50" relative="1" as="geometry" />
        </mxCell>
        <mxCell id="edge2" value="" style="endArrow=none;html=1;rounded=0;" edge="1" parent="1" source="node1" target="node3">
          <mxGeometry width="50" height="50" relative="1" as="geometry" />
        </mxCell>
        <mxCell id="edge3" value="" style="endArrow=none;html=1;rounded=0;" edge="1" parent="1" source="node2" target="node4">
          <mxGeometry width="50" height="50" relative="1" as="geometry" />
        </mxCell>
        <mxCell id="edge4" value="" style="endArrow=none;html=1;rounded=0;" edge="1" parent="1" source="node2" target="node5">
          <mxGeometry width="50" height="50" relative="1" as="geometry" />
        </mxCell>
        <mxCell id="edge5" value="" style="endArrow=none;html=1;rounded=0;" edge="1" parent="1" source="node3" target="node6">
          <mxGeometry width="50" height="50" relative="1" as="geometry" />
        </mxCell>
        <mxCell id="edge6" value="" style="endArrow=none;html=1;rounded=0;" edge="1" parent="1" source="node3" target="node7">
          <mxGeometry width="50" height="50" relative="1" as="geometry" />
        </mxCell>
        
        <!-- 层序遍历路径 -->
        <mxCell id="path1" value="" style="curved=1;endArrow=classic;html=1;rounded=0;dashed=1;strokeColor=#FF0000;strokeWidth=2;" edge="1" parent="1">
          <mxGeometry width="50" height="50" relative="1" as="geometry">
            <mxPoint x="380" y="100" as="sourcePoint" />
            <mxPoint x="280" y="180" as="targetPoint" />
          </mxGeometry>
        </mxCell>
        <mxCell id="path2" value="" style="curved=1;endArrow=classic;html=1;rounded=0;dashed=1;strokeColor=#FF0000;strokeWidth=2;" edge="1" parent="1">
          <mxGeometry width="50" height="50" relative="1" as="geometry">
            <mxPoint x="300" y="180" as="sourcePoint" />
            <mxPoint x="440" y="180" as="targetPoint" />
          </mxGeometry>
        </mxCell>
        <mxCell id="path3" value="" style="curved=1;endArrow=classic;html=1;rounded=0;dashed=1;strokeColor=#FF0000;strokeWidth=2;" edge="1" parent="1">
          <mxGeometry width="50" height="50" relative="1" as="geometry">
            <mxPoint x="460" y="180" as="sourcePoint" />
            <mxPoint x="240" y="260" as="targetPoint" />
          </mxGeometry>
        </mxCell>
        <mxCell id="path4" value="" style="curved=1;endArrow=classic;html=1;rounded=0;dashed=1;strokeColor=#FF0000;strokeWidth=2;" edge="1" parent="1">
          <mxGeometry width="50" height="50" relative="1" as="geometry">
            <mxPoint x="260" y="260" as="sourcePoint" />
            <mxPoint x="320" y="260" as="targetPoint" />
          </mxGeometry>
        </mxCell>
        <mxCell id="path5" value="" style="curved=1;endArrow=classic;html=1;rounded=0;dashed=1;strokeColor=#FF0000;strokeWidth=2;" edge="1" parent="1">
          <mxGeometry width="50" height="50" relative="1" as="geometry">
            <mxPoint x="340" y="260" as="sourcePoint" />
            <mxPoint x="400" y="260" as="targetPoint" />
          </mxGeometry>
        </mxCell>
        <mxCell id="path6" value="" style="curved=1;endArrow=classic;html=1;rounded=0;dashed=1;strokeColor=#FF0000;strokeWidth=2;" edge="1" parent="1">
          <mxGeometry width="50" height="50" relative="1" as="geometry">
            <mxPoint x="420" y="260" as="sourcePoint" />
            <mxPoint x="480" y="260" as="targetPoint" />
          </mxGeometry>
        </mxCell>
        
        <!-- 访问顺序标记 -->
        <mxCell id="num1" value="1" style="text;html=1;strokeColor=none;fillColor=none;align=center;verticalAlign=middle;whiteSpace=wrap;rounded=0;fontColor=#FF0000;" vertex="1" parent="1">
          <mxGeometry x="380" y="80" width="20" height="20" as="geometry" />
        </mxCell>
        <mxCell id="num2" value="2" style="text;html=1;strokeColor=none;fillColor=none;align=center;verticalAlign=middle;whiteSpace=wrap;rounded=0;fontColor=#FF0000;" vertex="1" parent="1">
          <mxGeometry x="260" y="160" width="20" height="20" as="geometry" />
        </mxCell>
        <mxCell id="num3" value="3" style="text;html=1;strokeColor=none;fillColor=none;align=center;verticalAlign=middle;whiteSpace=wrap;rounded=0;fontColor=#FF0000;" vertex="1" parent="1">
          <mxGeometry x="460" y="160" width="20" height="20" as="geometry" />
        </mxCell>
        <mxCell id="num4" value="4" style="text;html=1;strokeColor=none;fillColor=none;align=center;verticalAlign=middle;whiteSpace=wrap;rounded=0;fontColor=#FF0000;" vertex="1" parent="1">
          <mxGeometry x="220" y="240" width="20" height="20" as="geometry" />
        </mxCell>
        <mxCell id="num5" value="5" style="text;html=1;strokeColor=none;fillColor=none;align=center;verticalAlign=middle;whiteSpace=wrap;rounded=0;fontColor=#FF0000;" vertex="1" parent="1">
          <mxGeometry x="340" y="240" width="20" height="20" as="geometry" />
        </mxCell>
        <mxCell id="num6" value="6" style="text;html=1;strokeColor=none;fillColor=none;align=center;verticalAlign=middle;whiteSpace=wrap;rounded=0;fontColor=#FF0000;" vertex="1" parent="1">
          <mxGeometry x="420" y="240" width="20" height="20" as="geometry" />
        </mxCell>
        <mxCell id="num7" value="7" style="text;html=1;strokeColor=none;fillColor=none;align=center;verticalAlign=middle;whiteSpace=wrap;rounded=0;fontColor=#FF0000;" vertex="1" parent="1">
          <mxGeometry x="500" y="240" width="20" height="20" as="geometry" />
        </mxCell>
        
        <!-- 层次分隔线 -->
        <mxCell id="level1" value="" style="endArrow=none;dashed=1;html=1;strokeColor=#666666;" edge="1" parent="1">
          <mxGeometry width="50" height="50" relative="1" as="geometry">
            <mxPoint x="200" y="140" as="sourcePoint"/>
            <mxPoint x="520" y="140" as="targetPoint"/>
          </mxGeometry>
        </mxCell>
        <mxCell id="level2" value="" style="endArrow=none;dashed=1;html=1;strokeColor=#666666;" edge="1" parent="1">
          <mxGeometry width="50" height="50" relative="1" as="geometry">
            <mxPoint x="200" y="220" as="sourcePoint"/>
            <mxPoint x="520" y="220" as="targetPoint"/>
          </mxGeometry>
        </mxCell>
      </root>
    </mxGraphModel>
  </diagram>
</mxfile>
